<svg width="1024" height="1024" viewBox="0 0 1024 1024" xmlns="http://www.w3.org/2000/svg">
  <defs>
    <linearGradient id="bg" x1="0" y1="0" x2="0" y2="1">
      <stop offset="0" stop-color="#28486F"/>
      <stop offset="0.55" stop-color="#1E3A5F"/>
      <stop offset="1" stop-color="#10203A"/>
    </linearGradient>
    <radialGradient id="glow" cx="0.5" cy="0.45" r="0.6">
      <stop offset="0" stop-color="#D4A853" stop-opacity="0.25"/>
      <stop offset="1" stop-color="#D4A853" stop-opacity="0"/>
    </radialGradient>
    <linearGradient id="goldFront" x1="0" y1="0" x2="0" y2="1">
      <stop offset="0" stop-color="#F4DFA8"/>
      <stop offset="0.45" stop-color="#D4A853"/>
      <stop offset="1" stop-color="#B0832A"/>
    </linearGradient>
    <linearGradient id="goldSide" x1="0" y1="0" x2="0" y2="1">
      <stop offset="0" stop-color="#9A7022"/>
      <stop offset="1" stop-color="#634714"/>
    </linearGradient>
    <filter id="soft" x="-80%" y="-80%" width="260%" height="260%">
      <feGaussianBlur stdDeviation="30"/>
    </filter>
    <filter id="barShadow" x="-50%" y="-50%" width="200%" height="200%">
      <feDropShadow dx="0" dy="24" stdDeviation="26" flood-color="#081322" flood-opacity="0.5"/>
    </filter>
  </defs>

  <rect width="1024" height="1024" rx="228" fill="url(#bg)"/>
  <rect width="1024" height="1024" rx="228" fill="url(#glow)"/>
  <rect x="7" y="7" width="1010" height="1010" rx="221" fill="none" stroke="#FFFFFF" stroke-opacity="0.07" stroke-width="6"/>

  <ellipse cx="512" cy="846" rx="340" ry="52" fill="#081322" opacity="0.5" filter="url(#soft)"/>

  <g filter="url(#barShadow)">
    <!-- bar 1: h220 -->
    <rect x="202" y="418" width="96" height="220" rx="48" fill="url(#goldSide)"/>
    <rect x="184" y="402" width="96" height="220" rx="48" fill="url(#goldFront)"/>
    <ellipse cx="218" cy="458" rx="20" ry="38" fill="#FFFFFF" opacity="0.35"/>
    <!-- bar 2: h380 -->
    <rect x="342" y="338" width="96" height="380" rx="48" fill="url(#goldSide)"/>
    <rect x="324" y="322" width="96" height="380" rx="48" fill="url(#goldFront)"/>
    <ellipse cx="358" cy="382" rx="20" ry="44" fill="#FFFFFF" opacity="0.35"/>
    <!-- bar 3: h560 -->
    <rect x="482" y="248" width="96" height="560" rx="48" fill="url(#goldSide)"/>
    <rect x="464" y="232" width="96" height="560" rx="48" fill="url(#goldFront)"/>
    <ellipse cx="498" cy="296" rx="20" ry="52" fill="#FFFFFF" opacity="0.38"/>
    <!-- bar 4: h380 -->
    <rect x="622" y="338" width="96" height="380" rx="48" fill="url(#goldSide)"/>
    <rect x="604" y="322" width="96" height="380" rx="48" fill="url(#goldFront)"/>
    <ellipse cx="638" cy="382" rx="20" ry="44" fill="#FFFFFF" opacity="0.35"/>
    <!-- bar 5: h220 -->
    <rect x="762" y="418" width="96" height="220" rx="48" fill="url(#goldSide)"/>
    <rect x="744" y="402" width="96" height="220" rx="48" fill="url(#goldFront)"/>
    <ellipse cx="778" cy="458" rx="20" ry="38" fill="#FFFFFF" opacity="0.35"/>
  </g>
</svg>
